<svg width="32" height="32" viewBox="0 0 32 32" fill="none" xmlns="http://www.w3.org/2000/svg">
<rect width="32" height="32" rx="5" fill="black"/>
<path d="M15.68 7.92C17.072 7.92 18.272 8.208 19.28 8.784C20.288 9.344 21.128 10.176 21.8 11.28L20.192 12.528C19.6 11.504 18.928 10.784 18.176 10.368C17.44 9.936 16.544 9.72 15.488 9.72C14.64 9.72 13.936 9.84 13.376 10.08C12.832 10.32 12.432 10.64 12.176 11.04C11.92 11.424 11.792 11.864 11.792 12.36C11.792 12.92 11.968 13.416 12.32 13.848C12.672 14.264 13.376 14.592 14.432 14.832L17.864 15.6C19.384 15.936 20.44 16.448 21.032 17.136C21.64 17.808 21.944 18.648 21.944 19.656C21.944 20.552 21.688 21.352 21.176 22.056C20.68 22.744 19.976 23.28 19.064 23.664C18.152 24.048 17.08 24.24 15.848 24.24C14.696 24.24 13.68 24.088 12.8 23.784C11.936 23.464 11.192 23.04 10.568 22.512C9.944 21.984 9.432 21.392 9.032 20.736L10.712 19.368C11.016 19.976 11.408 20.512 11.888 20.976C12.368 21.44 12.944 21.8 13.616 22.056C14.304 22.312 15.088 22.44 15.968 22.44C16.784 22.44 17.488 22.344 18.08 22.152C18.688 21.944 19.152 21.648 19.472 21.264C19.792 20.864 19.952 20.384 19.952 19.824C19.952 19.312 19.784 18.856 19.448 18.456C19.112 18.04 18.48 17.728 17.552 17.52L13.832 16.68C12.856 16.456 12.064 16.152 11.456 15.768C10.864 15.368 10.432 14.904 10.16 14.376C9.904 13.832 9.776 13.248 9.776 12.624C9.776 11.776 10.008 11 10.472 10.296C10.952 9.576 11.632 9 12.512 8.568C13.408 8.136 14.464 7.92 15.68 7.92Z" fill="white"/>
</svg>
